<svg id="Layer_5" data-name="Layer 5" xmlns="http://www.w3.org/2000/svg" viewBox="0 0 1200.23 967"><defs><style>.cls-1{fill:#fff;}</style></defs><title>NGL-white</title><path class="cls-1" d="M710.34,181h0L593.59,161.44q-3,2.87-5.91,5.81a526.57,526.57,0,0,0,0,745.4c1.85,1.85,3.7,3.68,5.57,5.48l-47.06,56.08C431.65,864.94,360.27,710.78,360.27,540c0-171,71.51-325.29,186.26-434.59A602,602,0,0,1,605.46,56l47,56Z" transform="translate(-360.27 -56)"/><path class="cls-1" d="M1560.5,540c0,170.45-71.07,324.31-185.18,433.54a600.41,600.41,0,0,1-58.79,49.51l-47-56-57.6-68.66,116.34,19.1h0q2.43-2.35,4.82-4.75a526.57,526.57,0,0,0,0-745.4c-1.7-1.71-3.43-3.41-5.16-5.08L1375,106.08C1489.3,215.34,1560.5,369.33,1560.5,540Z" transform="translate(-360.27 -56)"/><path class="cls-1" d="M1180.46,218.32l-47.2,56.25a316.12,316.12,0,0,0-344.66-.31L741.38,218a389.67,389.67,0,0,1,439.08.34Z" transform="translate(-360.27 -56)"/><path class="cls-1" d="M1180.86,861.31a389.54,389.54,0,0,1-498.41-594l47.22,56.26a316.16,316.16,0,0,0-.33,432.34q3.7,4,7.55,7.81a316.17,316.17,0,0,0,396.78,41.31Z" transform="translate(-360.27 -56)"/><polygon class="cls-1" points="879.39 423.09 879.39 755.8 879.38 755.8 832.16 699.52 826.83 693.17 826.83 484.3 826.24 483.95 651.28 483.95 650.97 483.58 600.8 423.79 601.48 422.98 879.17 422.98 879.39 423.09"/></svg>